HIERARCHY
ROOT hip
{
	OFFSET 0.000000 0.000000 0.000000 
	CHANNELS 6 Xposition Yposition Zposition Xrotation Zrotation Yrotation
	JOINT abdomen
	{
		OFFSET 0.000000 3.402643 0.000000 
		CHANNELS 3 Xrotation Zrotation Yrotation
		JOINT chest
		{
			OFFSET 0.000000 8.438565 -0.680529 
			CHANNELS 3 Xrotation Zrotation Yrotation
			JOINT neck
			{
				OFFSET 0.000000 10.207942 -0.272212 
				CHANNELS 3 Xrotation Zrotation Yrotation
				JOINT head
				{
					OFFSET 0.000000 3.130431 0.000000 
					CHANNELS 3 Xrotation Zrotation Yrotation
					End Site
					{
						OFFSET 0.000000 3.130435 0.000000 
					}
				}
			}
			JOINT lCollar
			{
				OFFSET 3.470700 6.669187 -0.816635 
				CHANNELS 3 Yrotation Zrotation Xrotation
				JOINT lShldr
				{
					OFFSET 3.198488 0.000000 0.000000 
					CHANNELS 3 Zrotation Yrotation Xrotation
					JOINT lForeArm
					{
						OFFSET 10.139888 0.000000 0.000000 
						CHANNELS 3 Yrotation Zrotation Xrotation
						JOINT lHand
						{
							OFFSET 8.370511 0.000000 0.000000 
							CHANNELS 3 Zrotation Yrotation Xrotation
							End Site
							{
								OFFSET 4.083176 0.000000 0.000000 
							}
						}
					}
				}
			}
			JOINT rCollar
			{
				OFFSET -3.470700 6.669187 -0.816635 
				CHANNELS 3 Yrotation Zrotation Xrotation
				JOINT rShldr
				{
					OFFSET -3.198488 0.000000 0.000000 
					CHANNELS 3 Zrotation Yrotation Xrotation
					JOINT rForeArm
					{
						OFFSET -10.139888 0.000000 0.000000 
						CHANNELS 3 Yrotation Zrotation Xrotation
						JOINT rHand
						{
							OFFSET -8.370511 0.000000 0.000000 
							CHANNELS 3 Zrotation Yrotation Xrotation
							End Site
							{
								OFFSET -4.083176 0.000000 0.000000 
							}
						}
					}
				}
			}
		}
	}
	JOINT lThigh
	{
		OFFSET 5.308129 -1.633274 1.361059 
		CHANNELS 3 Xrotation Zrotation Yrotation
		JOINT lShin
		{
			OFFSET -2.041588 -20.007561 0.000000 
			CHANNELS 3 Xrotation Zrotation Yrotation
			JOINT lFoot
			{
				OFFSET 0.000000 -19.190928 -1.224953 
				CHANNELS 3 Xrotation Yrotation Zrotation
				End Site
				{
					OFFSET 0.000000 -2.449906 4.627600 
				}
			}
		}
	}
	JOINT rThigh
	{
		OFFSET -5.308129 -1.633274 1.361059 
		CHANNELS 3 Xrotation Zrotation Yrotation
		JOINT rShin
		{
			OFFSET 2.041588 -20.007561 0.000000 
			CHANNELS 3 Xrotation Zrotation Yrotation
			JOINT rFoot
			{
				OFFSET 0.000000 -19.190928 -1.224953 
				CHANNELS 3 Xrotation Yrotation Zrotation
				End Site
				{
					OFFSET 0.000000 -2.449906 4.627600 
				}
			}
		}
	}
}
MOTION
Frames: 8
Frame Time: 0.033333
-0.334739 46.929783 -0.138922 1.150806 10.144481 92.771355 0.000000 0.000000 0.000000 11.870662 -1.720243 5.683258 30.725756 4.625780 0.195244 -19.921936 0.111542 2.302655 -6.307837 4.504711 25.000000 -82.176018 4.053035 -6.134040 -53.548023 4.238825 75.900894 -23.058235 -9.315018 -54.303726 -19.501396 -5.047719 22.642042 64.241035 3.753316 68.193039 32.377010 -40.390263 30.272840 41.184475 0.355999 -81.938713 24.944386 1.603456 16.289642 10.373313 6.031735 1.471038 -11.464931 -14.687473 5.686172 29.731153 -5.068048 -0.648134 2.161715 1.178159 -0.375749 -1.905491 -1.153451 23.172802 
-0.334902 46.938240 -0.156569 1.340123 10.339030 93.015350 0.000000 0.000000 0.000000 12.086963 -1.919408 5.624115 30.745787 4.817575 0.205430 -20.000034 -0.085738 2.283081 -7.081305 4.537691 25.000000 -82.324997 3.185274 -6.022710 -54.153698 4.553889 75.673233 -22.782248 -8.993925 -54.560371 -19.764595 -4.996463 22.634401 64.083054 2.554840 68.308098 32.478752 -39.941471 30.325924 41.143520 0.795270 -81.863846 25.112555 1.398164 16.189854 10.336654 6.157530 1.538137 -11.465697 -14.871847 5.724239 30.035927 -5.273293 -0.708393 2.081779 1.293556 -0.360008 -1.865811 -1.371362 23.233395 
-0.330220 46.951931 -0.173001 1.499987 10.553104 93.224716 0.000000 0.000000 0.000000 12.283462 -2.061127 5.586426 30.882372 4.978973 0.221555 -20.137037 -0.256877 2.220949 -7.827330 4.504058 25.000000 -82.374802 2.459287 -5.970173 -54.911346 4.812944 75.710892 -22.342039 -9.800963 -54.372864 -19.974501 -4.999460 22.614529 63.994850 1.301930 68.479919 32.609760 -39.603546 30.376022 40.850582 0.930585 -81.771500 25.315704 1.222501 16.106209 10.263333 6.279704 1.545351 -11.428759 -15.042694 5.697235 30.347115 -5.439129 -0.766549 1.996454 1.402411 -0.335032 -1.842152 -1.589788 23.274050 
-0.320473 46.973125 -0.197337 1.750128 10.864191 93.495476 0.000000 0.000000 0.000000 12.578890 -2.325682 5.515996 31.038706 5.298919 0.239448 -20.274466 -0.461772 2.129668 -8.636152 4.488795 25.000000 -82.425903 1.567000 -5.917394 -55.822025 5.125343 75.610954 -21.886625 -10.138289 -54.418697 -20.274788 -4.941541 22.602709 63.916706 -0.184619 68.683548 32.757107 -39.432987 30.919846 40.965900 1.263189 -81.712883 25.643429 0.938036 15.972198 10.203706 6.435284 1.594788 -11.422797 -15.207929 5.757362 30.822403 -5.691955 -0.852025 1.845609 1.532808 -0.313706 -1.827314 -1.854321 23.349930 
-0.310966 46.992069 -0.217045 1.930774 11.116890 93.732330 0.000000 0.000000 0.000000 12.834732 -2.504271 5.464495 31.164532 5.582213 0.259830 -20.373188 -0.657830 2.043942 -9.292907 4.446033 25.000000 -82.398148 0.835043 -5.914272 -56.515415 5.318377 75.478889 -21.595255 -10.285254 -54.501095 -20.548012 -4.872392 22.594696 63.803036 -1.331796 68.812531 32.924728 -39.253624 31.568848 41.129871 1.644826 -81.659721 25.911697 0.744367 15.857280 10.121993 6.547884 1.631078 -11.388139 -15.379996 5.749732 31.222212 -5.848389 -0.877377 1.711930 1.594938 -0.320588 -1.807848 -2.100312 23.412104 
-0.298075 47.015720 -0.232908 2.042115 11.379676 93.939964 0.000000 0.000000 0.000000 13.089953 -2.606350 5.429091 31.250172 5.836873 0.276279 -20.442987 -0.853756 1.958445 -9.842713 4.320042 25.000000 -82.253166 0.275127 -5.969945 -57.118908 5.444180 75.327934 -21.444262 -10.368290 -54.572834 -20.809393 -4.757357 22.615847 63.608406 -2.200833 68.840355 33.089645 -38.977165 31.994921 41.236126 1.879683 -81.621277 26.183916 0.627078 15.794831 10.066380 6.669147 1.638283 -11.361969 -15.536640 5.729419 31.617853 -5.917877 -0.892694 1.594899 1.643446 -0.317107 -1.797323 -2.297898 23.461605 
-0.278228 47.051147 -0.247079 2.094473 11.720897 94.147408 0.000000 0.000000 0.000000 13.432499 -2.640684 5.404492 31.325762 6.077983 0.300545 -20.503576 -1.066581 1.863197 -10.346536 4.080416 25.000000 -82.008133 -0.162562 -6.093823 -57.789875 5.564906 75.143829 -21.419918 -10.504292 -54.545074 -21.077333 -4.564370 22.668442 63.320148 -2.938912 68.770325 33.229832 -38.548031 31.933828 41.255859 1.830941 -81.609863 26.556705 0.588056 15.730190 9.991021 6.785644 1.694687 -11.368892 -15.691774 5.714818 32.084259 -5.927004 -0.906122 1.473207 1.688108 -0.323869 -1.771703 -2.488137 23.513403 
-0.259921 47.076370 -0.259150 2.086211 11.945430 94.309692 0.000000 0.000000 0.000000 13.637782 -2.638411 5.395047 31.411882 6.316529 0.317960 -20.574272 -1.270510 1.812665 -10.780405 3.922903 25.000000 -81.876472 -0.654720 -6.150123 -58.436279 5.773377 74.951927 -21.529213 -10.781431 -54.401077 -21.337507 -4.404612 22.710775 63.137558 -3.651426 68.764946 33.319565 -38.535393 32.468761 42.346775 2.498930 -81.634048 26.790649 0.578293 15.682806 9.942292 6.893129 1.720725 -11.371787 -15.820781 5.704781 32.398205 -5.888290 -0.885143 1.410547 1.702325 -0.317371 -1.775304 -2.653717 23.628942 
